<svg data-v-d3f97b9e="" xmlns="http://www.w3.org/2000/svg" viewBox="0 0 554 91"><!----><!----><!----><g data-v-d3f97b9e="" id="a2371bde-e90f-47aa-b19d-0d94174c5b28" fill="white" transform="matrix(5.226481044642261,0,0,5.226481044642261,76.72756924813831,0.36592079667759236)"><path d="M7.52 12.57L7.52 12.57Q6.59 14.15 4.72 14.15L4.72 14.15L4.72 14.15Q3.23 14.15 2.29 13.27L2.29 13.27L2.29 13.27Q1.34 12.38 1.34 10.49L1.34 10.49L1.34 10.49Q1.34 8.58 2.28 7.71L2.28 7.71L2.28 7.71Q3.22 6.83 4.72 6.83L4.72 6.83L4.72 6.83Q5.63 6.83 6.33 7.22L6.33 7.22L6.33 7.22Q7.04 7.62 7.52 8.51L7.52 8.51L6.09 9.28L6.09 9.28Q5.64 8.18 4.68 8.18L4.68 8.18L4.68 8.18Q3.91 8.18 3.44 8.72L3.44 8.72L3.44 8.72Q2.98 9.27 2.98 10.49L2.98 10.49L2.98 10.49Q2.98 11.69 3.44 12.25L3.44 12.25L3.44 12.25Q3.91 12.81 4.68 12.81L4.68 12.81L4.68 12.81Q5.59 12.81 6.09 11.83L6.09 11.83L7.52 12.57ZM14.24 12.89L14.24 12.89Q14.55 12.89 15.01 12.82L15.01 12.82L15.01 12.82Q15.47 12.75 15.68 12.71L15.68 12.71L15.68 14L15.68 14Q14.76 14.15 13.94 14.15L13.94 14.15L13.94 14.15Q11.76 14.15 11.76 12.29L11.76 12.29L11.76 4.13L9.63 4.13L9.63 2.80L13.33 2.80L13.33 11.87L13.33 11.87Q13.33 12.50 13.59 12.70L13.59 12.70L13.59 12.70Q13.85 12.89 14.24 12.89L14.24 12.89ZM21.10 5.46L21.10 5.46Q20.57 5.46 20.21 5.10L20.21 5.10L20.21 5.10Q19.85 4.75 19.85 4.23L19.85 4.23L19.85 4.23Q19.85 3.71 20.21 3.35L20.21 3.35L20.21 3.35Q20.57 3.00 21.10 3.00L21.10 3.00L21.10 3.00Q21.63 3.00 21.98 3.35L21.98 3.35L21.98 3.35Q22.33 3.70 22.33 4.23L22.33 4.23L22.33 4.23Q22.33 4.75 21.98 5.10L21.98 5.10L21.98 5.10Q21.63 5.46 21.10 5.46L21.10 5.46ZM21.91 12.67L23.81 12.67L23.81 14L20.34 14L20.34 8.33L18.00 8.33L18.00 7L21.91 7L21.91 12.67ZM30.10 6.85L30.10 6.85Q31.35 6.85 32.00 7.62L32.00 7.62L32.00 7.62Q32.66 8.39 32.66 10.05L32.66 10.05L32.66 14L31.09 14L31.09 10.33L31.09 10.33Q31.09 9.53 31.00 9.09L31.00 9.09L31.00 9.09Q30.91 8.64 30.64 8.41L30.64 8.41L30.64 8.41Q30.37 8.19 29.82 8.19L29.82 8.19L29.82 8.19Q29.16 8.19 28.73 8.54L28.73 8.54L28.73 8.54Q28.29 8.89 28.07 9.34L28.07 9.34L28.07 14L26.50 14L26.50 9.17L26.50 7L27.66 7L27.66 7Q27.69 7.07 27.76 7.31L27.76 7.31L27.76 7.31Q27.82 7.55 27.92 7.84L27.92 7.84L27.92 7.84Q28.28 7.36 28.83 7.10L28.83 7.10L28.83 7.10Q29.39 6.85 30.10 6.85L30.10 6.85ZM37.90 5.46L37.90 5.46Q37.37 5.46 37.01 5.10L37.01 5.10L37.01 5.10Q36.65 4.75 36.65 4.23L36.65 4.23L36.65 4.23Q36.65 3.71 37.01 3.35L37.01 3.35L37.01 3.35Q37.37 3.00 37.90 3.00L37.90 3.00L37.90 3.00Q38.43 3.00 38.78 3.35L38.78 3.35L38.78 3.35Q39.13 3.70 39.13 4.23L39.13 4.23L39.13 4.23Q39.13 4.75 38.78 5.10L38.78 5.10L38.78 5.10Q38.43 5.46 37.90 5.46L37.90 5.46ZM38.71 12.67L40.61 12.67L40.61 14L37.14 14L37.14 8.33L34.80 8.33L34.80 7L38.71 7L38.71 12.67ZM49.52 12.57L49.52 12.57Q48.59 14.15 46.72 14.15L46.72 14.15L46.72 14.15Q45.23 14.15 44.29 13.27L44.29 13.27L44.29 13.27Q43.34 12.38 43.34 10.49L43.34 10.49L43.34 10.49Q43.34 8.58 44.28 7.71L44.28 7.71L44.28 7.71Q45.22 6.83 46.72 6.83L46.72 6.83L46.72 6.83Q47.63 6.83 48.34 7.22L48.34 7.22L48.34 7.22Q49.04 7.62 49.52 8.51L49.52 8.51L48.09 9.28L48.09 9.28Q47.64 8.18 46.68 8.18L46.68 8.18L46.68 8.18Q45.91 8.18 45.44 8.72L45.44 8.72L45.44 8.72Q44.98 9.27 44.98 10.49L44.98 10.49L44.98 10.49Q44.98 11.69 45.44 12.25L45.44 12.25L45.44 12.25Q45.91 12.81 46.68 12.81L46.68 12.81L46.68 12.81Q47.59 12.81 48.09 11.83L48.09 11.83L49.52 12.57ZM56.94 6.85L56.94 6.85Q57.46 6.85 57.81 7.05L57.81 7.05L57.81 7.05Q58.17 7.25 58.38 7.83L58.38 7.83L58.38 7.83Q58.59 8.40 58.59 9.49L58.59 9.49L58.59 14L57.09 14L57.09 9.91L57.09 9.91Q57.09 9.20 57.04 8.83L57.04 8.83L57.04 8.83Q56.98 8.47 56.85 8.33L56.85 8.33L56.85 8.33Q56.73 8.19 56.46 8.19L56.46 8.19L56.46 8.19Q56.18 8.19 55.87 8.43L55.87 8.43L55.87 8.43Q55.57 8.68 55.44 8.99L55.44 8.99L55.44 9.00L55.44 14L54.04 14L54.04 9.91L54.04 9.91Q54.04 9.21 53.98 8.84L53.98 8.84L53.98 8.84Q53.93 8.47 53.79 8.33L53.79 8.33L53.79 8.33Q53.65 8.19 53.40 8.19L53.40 8.19L53.40 8.19Q53.13 8.19 52.82 8.44L52.82 8.44L52.82 8.44Q52.51 8.69 52.39 9.02L52.39 9.02L52.39 14L50.89 14L50.89 9.17L50.89 7L52.00 7L52.22 7.80L52.22 7.80Q52.51 7.35 52.92 7.10L52.92 7.10L52.92 7.10Q53.33 6.85 53.79 6.85L53.79 6.85L53.79 6.85Q54.32 6.85 54.71 7.10L54.71 7.10L54.71 7.10Q55.10 7.36 55.27 7.88L55.27 7.88L55.27 7.88Q55.58 7.39 56.01 7.12L56.01 7.12L56.01 7.12Q56.45 6.85 56.94 6.85L56.94 6.85ZM66.82 13.31L65.81 14.28L64.93 13.41L64.93 13.41Q64.01 14.15 62.71 14.15L62.71 14.15L62.71 14.15Q61.21 14.15 60.49 13.59L60.49 13.59L60.49 13.59Q59.78 13.03 59.78 11.86L59.78 11.86L59.78 11.86Q59.78 10.68 60.56 10.13L60.56 10.13L60.56 10.13Q61.33 9.58 62.99 9.58L62.99 9.58L64.41 9.58L64.41 9.21L64.41 9.21Q64.41 8.65 64.08 8.41L64.08 8.41L64.08 8.41Q63.74 8.16 62.99 8.16L62.99 8.16L62.99 8.16Q62.31 8.16 61.89 8.31L61.89 8.31L61.89 8.31Q61.46 8.46 61.19 8.76L61.19 8.76L60.19 7.78L60.19 7.78Q60.62 7.35 61.38 7.09L61.38 7.09L61.38 7.09Q62.13 6.83 63.10 6.83L63.10 6.83L63.10 6.83Q64.44 6.83 65.21 7.36L65.21 7.36L65.21 7.36Q65.98 7.88 65.98 8.85L65.98 8.85L65.98 12.47L66.82 13.31ZM61.33 11.86L61.33 11.86Q61.33 12.39 61.68 12.61L61.68 12.61L61.68 12.61Q62.03 12.84 62.94 12.84L62.94 12.84L62.94 12.84Q63.38 12.84 63.77 12.68L63.77 12.68L63.77 12.68Q64.16 12.53 64.41 12.29L64.41 12.29L64.41 10.82L63.46 10.82L63.46 10.82Q62.54 10.82 62.09 10.92L62.09 10.92L62.09 10.92Q61.64 11.02 61.49 11.23L61.49 11.23L61.49 11.23Q61.33 11.44 61.33 11.86L61.33 11.86ZM74.10 8.33L71.64 8.33L71.64 11.83L71.64 11.83Q71.64 12.45 71.83 12.67L71.83 12.67L71.83 12.67Q72.03 12.89 72.39 12.89L72.39 12.89L72.39 12.89Q72.86 12.89 73.67 12.71L73.67 12.71L73.67 14L73.67 14Q73.63 14 73.25 14.08L73.25 14.08L73.25 14.08Q72.87 14.15 72.10 14.15L72.10 14.15L72.10 14.15Q70.07 14.15 70.07 12.29L70.07 12.29L70.07 8.33L68.11 8.33L68.11 7L70.07 7L70.07 4.48L71.64 4.48L71.64 7L74.10 7L74.10 8.33ZM83.12 12.57L83.12 12.57Q82.19 14.15 80.32 14.15L80.32 14.15L80.32 14.15Q78.83 14.15 77.89 13.27L77.89 13.27L77.89 13.27Q76.94 12.38 76.94 10.49L76.94 10.49L76.94 10.49Q76.94 8.58 77.88 7.71L77.88 7.71L77.88 7.71Q78.82 6.83 80.32 6.83L80.32 6.83L80.32 6.83Q81.23 6.83 81.94 7.22L81.94 7.22L81.94 7.22Q82.64 7.62 83.12 8.51L83.12 8.51L81.69 9.28L81.69 9.28Q81.24 8.18 80.28 8.18L80.28 8.18L80.28 8.18Q79.51 8.18 79.04 8.72L79.04 8.72L79.04 8.72Q78.58 9.27 78.58 10.49L78.58 10.49L78.58 10.49Q78.58 11.69 79.04 12.25L79.04 12.25L79.04 12.25Q79.51 12.81 80.28 12.81L80.28 12.81L80.28 12.81Q81.19 12.81 81.69 11.83L81.69 11.83L83.12 12.57ZM88.77 6.85L88.77 6.85Q90.03 6.85 90.64 7.57L90.64 7.57L90.64 7.57Q91.25 8.30 91.25 9.97L91.25 9.97L91.25 14L89.68 14L89.68 10.56L89.68 10.56Q89.68 9.69 89.59 9.20L89.59 9.20L89.59 9.20Q89.50 8.71 89.22 8.45L89.22 8.45L89.22 8.45Q88.94 8.19 88.38 8.19L88.38 8.19L88.38 8.19Q87.70 8.19 87.23 8.55L87.23 8.55L87.23 8.55Q86.76 8.90 86.53 9.34L86.53 9.34L86.53 14L84.97 14L84.97 2.80L86.53 2.80L86.53 7.67L86.53 7.67Q86.93 7.28 87.50 7.06L87.50 7.06L87.50 7.06Q88.07 6.85 88.77 6.85L88.77 6.85Z"></path></g><!----><g data-v-d3f97b9e="" id="ea7cbb19-2a66-470d-b41b-f43ae6de541b" transform="matrix(1.0000007629394532,0,0,1.0000007629394532,-17.865540063859953,-5.000072692897447)" stroke="none" fill="white"><path d="M50.673 5.28c-17.575 0-31.866 14.301-31.866 31.866 0 29.621 29.937 56.74 31.203 57.887a.987.987 0 0 0 .663.247c.247 0 .485-.089.682-.267 1.266-1.207 31.183-29.74 31.183-57.867.001-17.565-14.29-31.866-31.865-31.866zM24.9 37.453c0-14.281 11.621-25.902 25.902-25.902s25.902 11.621 25.902 25.902-11.621 25.902-25.902 25.902S24.9 51.734 24.9 37.453z"></path><path d="M50.802 13.528c-13.193 0-23.924 10.741-23.924 23.924 0 13.193 10.731 23.924 23.924 23.924s23.924-10.731 23.924-23.924c0-13.183-10.731-23.924-23.924-23.924zM65 43h-8v8H46v-8h-8V32h8v-8h11v8h8v11z"></path></g><!----></svg>