<svg data-v-29081953="" xmlns="http://www.w3.org/2000/svg" viewBox="0 0 300 300"><!----><defs data-v-29081953=""><!----></defs><rect data-v-29081953="" fill="#F6936C" x="0" y="0" width="300px" height="300px" class="logo-background-square"></rect><!----><defs data-v-29081953=""><!----></defs><g data-v-29081953="" id="8dde194f-4793-41ee-a505-7ca76ca90b68" fill="#FFFFFF" stroke="none" transform="matrix(2.4444425794827596,0,0,2.4444425794827596,26.133977236786308,27.093342667466565)"><path d="M50.673 5.28c-17.575 0-31.866 14.301-31.866 31.866 0 29.621 29.937 56.74 31.203 57.887a.987.987 0 0 0 .663.247c.247 0 .485-.089.682-.267 1.266-1.207 31.183-29.74 31.183-57.867.001-17.565-14.29-31.866-31.865-31.866zM24.9 37.453c0-14.281 11.621-25.902 25.902-25.902s25.902 11.621 25.902 25.902-11.621 25.902-25.902 25.902S24.9 51.734 24.9 37.453z"></path><path d="M50.802 13.528c-13.193 0-23.924 10.741-23.924 23.924 0 13.193 10.731 23.924 23.924 23.924s23.924-10.731 23.924-23.924c0-13.183-10.731-23.924-23.924-23.924zM65 43h-8v8H46v-8h-8V32h8v-8h11v8h8v11z"></path></g><!----></svg>