<svg data-v-d3f97b9e="" xmlns="http://www.w3.org/2000/svg" viewBox="0 0 42.48730278983857 60"><!----><!----><!----><!----><g data-v-d3f97b9e="" id="21e41b3d-bf0b-47ba-a5e1-90fb2261278d" transform="matrix(0.6666661580407527,0,0,0.6666661580407527,-12.537990228035554,-3.519997931164461)" stroke="none" fill="white"><path d="M50.673 5.28c-17.575 0-31.866 14.301-31.866 31.866 0 29.621 29.937 56.74 31.203 57.887a.987.987 0 0 0 .663.247c.247 0 .485-.089.682-.267 1.266-1.207 31.183-29.74 31.183-57.867.001-17.565-14.29-31.866-31.865-31.866zM24.9 37.453c0-14.281 11.621-25.902 25.902-25.902s25.902 11.621 25.902 25.902-11.621 25.902-25.902 25.902S24.9 51.734 24.9 37.453z"></path><path d="M50.802 13.528c-13.193 0-23.924 10.741-23.924 23.924 0 13.193 10.731 23.924 23.924 23.924s23.924-10.731 23.924-23.924c0-13.183-10.731-23.924-23.924-23.924zM65 43h-8v8H46v-8h-8V32h8v-8h11v8h8v11z"></path></g><!----></svg>